<?xml version="1.0" encoding="UTF-8"?>
<svg xmlns="http://www.w3.org/2000/svg" xmlns:xlink="http://www.w3.org/1999/xlink" width="48pt" height="48pt" viewBox="0 0 48 48" version="1.1">
<defs>
<filter id="alpha" filterUnits="objectBoundingBox" x="0%" y="0%" width="100%" height="100%">
  <feColorMatrix type="matrix" in="SourceGraphic" values="0 0 0 0 1 0 0 0 0 1 0 0 0 0 1 0 0 0 1 0"/>
</filter>
<mask id="mask0">
  <g filter="url(#alpha)">
<rect x="0" y="0" width="48" height="48" style="fill:rgb(0%,0%,0%);fill-opacity:0.0509804;stroke:none;"/>
  </g>
</mask>
<clipPath id="clip1">
  <rect width="48" height="48"/>
</clipPath>
<g id="surface958698" clip-path="url(#clip1)">
<path style=" stroke:none;fill-rule:nonzero;fill:rgb(0%,0%,0%);fill-opacity:1;" d="M 30 37 L 30 26.902344 C 30 25.210938 29.179688 24.203125 27.808594 24.203125 C 26.992188 24.203125 26.394531 24.660156 26.027344 25.566406 C 26.011719 25.632812 25.988281 25.890625 25.996094 26.679688 L 26 37 L 19 37 L 19 18 L 26 18 L 26 19.0625 C 27.023438 18.355469 28.273438 18 29.738281 18 C 34.285156 18 37 21.09375 37 26.273438 L 37 37 Z M 11 37 L 11 18 L 14.457031 18 C 12.453125 18 11 16.527344 11 14.5 C 11 12.472656 12.476562 11 14.515625 11 C 16.527344 11 17.960938 12.429688 18 14.480469 C 18 16.523438 16.519531 18 14.484375 18 L 18 18 L 18 37 Z M 11 37 "/>
</g>
<mask id="mask1">
  <g filter="url(#alpha)">
<rect x="0" y="0" width="48" height="48" style="fill:rgb(0%,0%,0%);fill-opacity:0.0705882;stroke:none;"/>
  </g>
</mask>
<clipPath id="clip2">
  <rect width="48" height="48"/>
</clipPath>
<g id="surface958701" clip-path="url(#clip2)">
<path style=" stroke:none;fill-rule:nonzero;fill:rgb(0%,0%,0%);fill-opacity:1;" d="M 30.5 36.5 L 30.5 26.902344 C 30.5 24.929688 29.46875 23.703125 27.808594 23.703125 C 26.511719 23.703125 25.871094 24.613281 25.566406 25.378906 C 25.484375 25.578125 25.492188 26.367188 25.496094 26.707031 L 25.5 36.5 L 19.5 36.5 L 19.5 18.5 L 25.5 18.5 L 25.5 20.136719 C 26.296875 19.316406 27.574219 18.5 29.738281 18.5 C 33.972656 18.5 36.5 21.40625 36.5 26.273438 L 36.5 36.5 Z M 11.5 36.5 L 11.5 18.5 L 17.5 18.5 L 17.5 36.5 Z M 14.457031 17.5 C 12.742188 17.5 11.5 16.238281 11.5 14.5 C 11.5 12.761719 12.769531 11.5 14.515625 11.5 C 16.238281 11.5 17.464844 12.730469 17.5 14.488281 C 17.5 16.238281 16.230469 17.5 14.484375 17.5 Z M 14.457031 17.5 "/>
</g>
</defs>
<g id="surface958693">
<path style=" stroke:none;fill-rule:nonzero;fill:rgb(90.196078%,49.411765%,13.333333%);fill-opacity:1;" d="M 42 37 C 42 39.761719 39.761719 42 37 42 L 11 42 C 8.238281 42 6 39.761719 6 37 L 6 11 C 6 8.238281 8.238281 6 11 6 L 37 6 C 39.761719 6 42 8.238281 42 11 Z M 42 37 "/>
<use xlink:href="#surface958698" mask="url(#mask0)"/>
<use xlink:href="#surface958701" mask="url(#mask1)"/>
<path style=" stroke:none;fill-rule:nonzero;fill:rgb(100%,100%,100%);fill-opacity:1;" d="M 12 19 L 17 19 L 17 36 L 12 36 Z M 14.484375 17 L 14.457031 17 C 12.964844 17 12 15.886719 12 14.5 C 12 13.078125 12.996094 12 14.515625 12 C 16.035156 12 16.972656 13.078125 17 14.5 C 17 15.886719 16.035156 17 14.484375 17 Z M 36 36 L 31 36 L 31 26.902344 C 31 24.703125 29.773438 23.203125 27.808594 23.203125 C 26.308594 23.203125 25.496094 24.214844 25.101562 25.191406 C 24.957031 25.542969 25 26.511719 25 27 L 25 36 L 20 36 L 20 19 L 25 19 L 25 21.617188 C 25.722656 20.5 26.851562 19 29.738281 19 C 33.316406 19 36 21.25 36 26.273438 Z M 36 36 "/>
</g>
</svg>
